<!--?xml version="1.0" standalone="no"?-->
              <svg id="sw-js-blob-svg" viewBox="0 0 100 100" xmlns="http://www.w3.org/2000/svg" version="1.1">
                    <defs> 
                        <linearGradient id="sw-gradient" x1="0" x2="1" y1="1" y2="0">
                            <stop id="stop1" stop-color="rgba(248, 117, 55, 1)" offset="0%"></stop>
                            <stop id="stop2" stop-color="rgba(251, 168, 31, 1)" offset="100%"></stop>
                        </linearGradient>
                    </defs>
                <path fill="url(#sw-gradient)" d="M20.4,-26.5C25.3,-20.2,27.5,-12.7,29.7,-4.6C31.8,3.5,34,12.2,31.5,19.9C29.1,27.6,22,34.4,13.5,37.9C4.9,41.4,-5.1,41.6,-14.5,38.7C-23.8,35.8,-32.4,29.7,-35.9,21.7C-39.4,13.7,-37.9,3.6,-34.3,-4.2C-30.8,-12.1,-25.3,-17.8,-19.2,-24C-13.2,-30.2,-6.6,-36.9,0.6,-37.5C7.7,-38.2,15.5,-32.9,20.4,-26.5Z" width="100%" height="100%" transform="translate(50 50)" stroke-width="0" style="transition: all 0.3s ease 0s;"></path>
              </svg>