<!--?xml version="1.0" standalone="no"?-->
              <svg id="sw-js-blob-svg" viewBox="0 0 100 100" xmlns="http://www.w3.org/2000/svg" version="1.1">
                    <defs> 
                        <linearGradient id="sw-gradient" x1="0" x2="1" y1="1" y2="0">
                            <stop id="stop1" stop-color="rgba(248, 117, 55, 1)" offset="0%"></stop>
                            <stop id="stop2" stop-color="rgba(251, 168, 31, 1)" offset="100%"></stop>
                        </linearGradient>
                    </defs>
                <path fill="url(#sw-gradient)" d="M24.6,-32.3C32,-28.5,38,-21.4,40.6,-13.2C43.2,-5.1,42.4,4.2,38.1,10.8C33.7,17.3,25.9,21.1,19,27C12.1,32.8,6,40.7,-1.7,43C-9.5,45.4,-18.9,42.3,-25.9,36.4C-32.9,30.6,-37.4,22.1,-40.1,13.2C-42.8,4.2,-43.7,-5.1,-41.3,-13.6C-38.8,-22.2,-33,-29.8,-25.6,-33.5C-18.2,-37.3,-9.1,-37,-0.2,-36.7C8.6,-36.4,17.2,-36,24.6,-32.3Z" width="100%" height="100%" transform="translate(50 50)" stroke-width="0" style="transition: all 0.3s ease 0s;"></path>
              </svg>