<!--?xml version="1.0" standalone="no"?-->
              <svg id="sw-js-blob-svg" viewBox="0 0 100 100" xmlns="http://www.w3.org/2000/svg" version="1.1">
                    <defs> 
                        <linearGradient id="sw-gradient" x1="0" x2="1" y1="1" y2="0">
                            <stop id="stop1" stop-color="rgba(83.174, 78.692, 76.57, 1)" offset="0%"></stop>
                            <stop id="stop2" stop-color="rgba(121.879, 115.373, 104.634, 1)" offset="100%"></stop>
                        </linearGradient>
                    </defs>
                <path fill="url(#sw-gradient)" d="M24.7,-27.8C30.7,-24.5,33.2,-15.4,33.1,-7.2C32.9,1,30,8.3,26.5,16C22.9,23.7,18.7,31.8,11.7,36C4.7,40.2,-5.1,40.7,-13.2,37.3C-21.3,33.9,-27.6,26.7,-32.2,18.6C-36.8,10.6,-39.6,1.5,-37.5,-6C-35.4,-13.5,-28.4,-19.4,-21.3,-22.5C-14.2,-25.6,-7.1,-25.8,1.1,-27.2C9.4,-28.5,18.8,-31,24.7,-27.8Z" width="100%" height="100%" transform="translate(50 50)" stroke-width="0" style="transition: all 0.3s ease 0s;" stroke="url(#sw-gradient)"></path>
              </svg>