<!--?xml version="1.0" standalone="no"?-->
              <svg id="sw-js-blob-svg" viewBox="0 0 100 100" xmlns="http://www.w3.org/2000/svg" version="1.1">
                    <defs> 
                        <linearGradient id="sw-gradient" x1="0" x2="1" y1="1" y2="0">
                            <stop id="stop1" stop-color="rgba(248, 117, 55, 1)" offset="0%"></stop>
                            <stop id="stop2" stop-color="rgba(251, 168, 31, 1)" offset="100%"></stop>
                        </linearGradient>
                    </defs>
                <path fill="url(#sw-gradient)" d="M26,-28.8C32.1,-25.9,34.3,-16.2,36.1,-6.3C37.9,3.5,39.3,13.5,34.7,18.7C30.1,23.9,19.5,24.3,11.3,24.5C3,24.7,-3,24.8,-10.2,23.9C-17.3,23.1,-25.6,21.3,-31.8,15.8C-37.9,10.4,-42,1.1,-38.9,-5.2C-35.8,-11.5,-25.6,-15,-18,-17.6C-10.3,-20.3,-5.1,-22.2,2.4,-25.1C10,-27.9,19.9,-31.8,26,-28.8Z" width="100%" height="100%" transform="translate(50 50)" stroke-width="0" style="transition: all 0.3s ease 0s;"></path>
              </svg>